{
  "asset": {
    "version": "2.0",
    "generator": "THREE.GLTFExporter"
  },
  "scenes": [
    {
      "nodes": [
        0
      ]
    }
  ],
  "scene": 0,
  "nodes": [
    {
      "children": [
        13
      ],
      "matrix": [
        0.01,
        0,
        0,
        0,
        0,
        0.01,
        0,
        0,
        0,
        0,
        0.01,
        0,
        0,
        0,
        0,
        1
      ]
    },
    {
      "matrix": [
        1,
        0,
        0,
        0,
        0,
        1,
        0,
        0,
        0,
        0,
        1,
        0,
        1.0703622686902517e-9,
        -1.4797161487491875e-11,
        201025.96384483678,
        1
      ],
      "name": "Camera",
      "camera": 0
    },
    {
      "matrix": [
        20,
        0,
        0,
        0,
        0,
        20,
        0,
        0,
        0,
        0,
        20,
        0,
        0,
        -7.275957614183426e-12,
        -148355.28784372302,
        1
      ],
      "name": "Stars",
      "mesh": 0
    },
    {
      "name": "Camera Control",
      "children": [
        1,
        2
      ]
    },
    {
      "matrix": [
        0.9108283241124271,
        0,
        -0.41278537279626015,
        0,
        0,
        1,
        0,
        0,
        0.41278537279626015,
        0,
        0.9108283241124271,
        0,
        0,
        0,
        0,
        1
      ],
      "name": "Directional Light",
      "extensions": {
        "KHR_lights_punctual": {
          "light": 0
        }
      }
    },
    {
      "matrix": [
        2.220446049250313e-16,
        0,
        -1,
        0,
        0,
        1,
        0,
        0,
        1,
        0,
        2.220446049250313e-16,
        0,
        0,
        0,
        0,
        1
      ],
      "name": "Sun",
      "children": [
        4
      ]
    },
    {
      "matrix": [
        1.04,
        1.731947918415244e-16,
        -5.773159728050813e-17,
        0,
        5.773159728050817e-17,
        1.0400000000000007,
        0,
        0,
        0,
        0,
        1.04,
        0,
        0,
        0,
        1,
        0.9999999999999999
      ],
      "name": "Atmosphere",
      "mesh": 1
    },
    {
      "name": "Earth",
      "mesh": 2
    },
    {
      "name": "Earth Control",
      "children": [
        6,
        7
      ]
    },
    {
      "name": "World",
      "children": [
        5,
        8
      ]
    },
    {
      "matrix": [
        1,
        0,
        0,
        0,
        0,
        1,
        0,
        0,
        0,
        0,
        1,
        0,
        -1291,
        0,
        112,
        1
      ],
      "name": "Universe",
      "children": [
        9
      ]
    },
    {
      "matrix": [
        1,
        0,
        0,
        0,
        0,
        0.00009999999956933348,
        0.999999995,
        0,
        0,
        -0.999999995,
        0.00009999999956933348,
        0,
        8875.014887165622,
        -1003.8110306684566,
        -38110.256657240025,
        1
      ],
      "camera": 1
    },
    {
      "matrix": [
        1,
        0,
        0,
        0,
        0,
        1,
        0,
        0,
        0,
        0,
        1,
        0,
        0,
        1,
        0,
        1
      ],
      "name": "Default Ambient Light"
    },
    {
      "name": "Scene",
      "children": [
        3,
        10,
        11,
        12
      ]
    }
  ],
  "cameras": [
    {
      "type": "perspective",
      "perspective": {
        "aspectRatio": 2.1460506706408347,
        "yfov": 0.7853981633974483,
        "zfar": 1000000,
        "znear": 70
      },
      "name": "Camera"
    },
    {
      "type": "orthographic",
      "orthographic": {
        "xmag": 3758.829712658127,
        "ymag": 1751.5102341622244,
        "zfar": 100000,
        "znear": 0
      }
    }
  ],
  "bufferViews": [
    {
      "buffer": 0,
      "byteOffset": 0,
      "byteLength": 972,
      "target": 34962,
      "byteStride": 12
    },
    {
      "buffer": 0,
      "byteOffset": 972,
      "byteLength": 972,
      "target": 34962,
      "byteStride": 12
    },
    {
      "buffer": 0,
      "byteOffset": 1944,
      "byteLength": 648,
      "target": 34962,
      "byteStride": 8
    },
    {
      "buffer": 0,
      "byteOffset": 2592,
      "byteLength": 768,
      "target": 34963
    },
    {
      "buffer": 0,
      "byteOffset": 3360,
      "byteLength": 199692,
      "target": 34962,
      "byteStride": 12
    },
    {
      "buffer": 0,
      "byteOffset": 203052,
      "byteLength": 199692,
      "target": 34962,
      "byteStride": 12
    },
    {
      "buffer": 0,
      "byteOffset": 402744,
      "byteLength": 133128,
      "target": 34962,
      "byteStride": 8
    },
    {
      "buffer": 0,
      "byteOffset": 535872,
      "byteLength": 195072,
      "target": 34963
    },
    {
      "buffer": 0,
      "byteOffset": 730944,
      "byteLength": 199692,
      "target": 34962,
      "byteStride": 12
    },
    {
      "buffer": 0,
      "byteOffset": 930636,
      "byteLength": 199692,
      "target": 34962,
      "byteStride": 12
    },
    {
      "buffer": 0,
      "byteOffset": 1130328,
      "byteLength": 133128,
      "target": 34962,
      "byteStride": 8
    },
    {
      "buffer": 0,
      "byteOffset": 1263456,
      "byteLength": 195072,
      "target": 34963
    }
  ],
  "buffers": [
    {
      "byteLength": 1458528,
      "uri": "data:application/octet-stream;base64,"
    }
  ],
  "accessors": [
    {
      "bufferView": 0,
      "componentType": 5126,
      "count": 81,
      "max": [
        14105,
        14105,
        0
      ],
      "min": [
        -14105,
        -14105,
        0
      ],
      "type": "VEC3"
    },
    {
      "bufferView": 1,
      "componentType": 5126,
      "count": 81,
      "max": [
        0,
        0,
        1
      ],
      "min": [
        0,
        0,
        1
      ],
      "type": "VEC3"
    },
    {
      "bufferView": 2,
      "componentType": 5126,
      "count": 81,
      "max": [
        1,
        1
      ],
      "min": [
        0,
        0
      ],
      "type": "VEC2"
    },
    {
      "bufferView": 3,
      "componentType": 5123,
      "count": 384,
      "max": [
        80
      ],
      "min": [
        0
      ],
      "type": "SCALAR"
    },
    {
      "bufferView": 4,
      "componentType": 5126,
      "count": 16641,
      "max": [
        50005,
        50005,
        50005
      ],
      "min": [
        -50005,
        -50005,
        -50005
      ],
      "type": "VEC3"
    },
    {
      "bufferView": 5,
      "componentType": 5126,
      "count": 16641,
      "max": [
        1,
        1,
        1
      ],
      "min": [
        -1,
        -1,
        -1
      ],
      "type": "VEC3"
    },
    {
      "bufferView": 6,
      "componentType": 5126,
      "count": 16641,
      "max": [
        1.00390625,
        1
      ],
      "min": [
        -0.00390625,
        0
      ],
      "type": "VEC2"
    },
    {
      "bufferView": 7,
      "componentType": 5123,
      "count": 97536,
      "max": [
        16640
      ],
      "min": [
        0
      ],
      "type": "SCALAR"
    },
    {
      "bufferView": 8,
      "componentType": 5126,
      "count": 16641,
      "max": [
        50000,
        50000,
        50000
      ],
      "min": [
        -50000,
        -50000,
        -50000
      ],
      "type": "VEC3"
    },
    {
      "bufferView": 9,
      "componentType": 5126,
      "count": 16641,
      "max": [
        1,
        1,
        1
      ],
      "min": [
        -1,
        -1,
        -1
      ],
      "type": "VEC3"
    },
    {
      "bufferView": 10,
      "componentType": 5126,
      "count": 16641,
      "max": [
        1.00390625,
        1
      ],
      "min": [
        -0.00390625,
        0
      ],
      "type": "VEC2"
    },
    {
      "bufferView": 11,
      "componentType": 5123,
      "count": 97536,
      "max": [
        16640
      ],
      "min": [
        0
      ],
      "type": "SCALAR"
    }
  ],
  "meshes": [
    {
      "primitives": [
        {
          "mode": 4,
          "attributes": {
            "POSITION": 0,
            "NORMAL": 1,
            "TEXCOORD_0": 2
          },
          "extras": {
            "parameters": {
              "width": 28210,
              "depth": 0,
              "widthSegments": 8,
              "heightSegments": 8,
              "height": 28210,
              "type": "PlaneGeometry"
            },
            "type": "PlaneGeometry"
          },
          "indices": 3
        }
      ]
    },
    {
      "primitives": [
        {
          "mode": 4,
          "attributes": {
            "POSITION": 4,
            "NORMAL": 5,
            "TEXCOORD_0": 6
          },
          "extras": {
            "parameters": {
              "width": 100010,
              "widthSegments": 128,
              "heightSegments": 128,
              "phiStart": 0,
              "phiLength": 6.283185307179586,
              "thetaStart": 0,
              "thetaLength": 180,
              "height": 100010,
              "depth": 100010,
              "type": "SphereGeometry"
            },
            "type": "SphereGeometry"
          },
          "indices": 7
        }
      ]
    },
    {
      "primitives": [
        {
          "mode": 4,
          "attributes": {
            "POSITION": 8,
            "NORMAL": 9,
            "TEXCOORD_0": 10
          },
          "extras": {
            "parameters": {
              "width": 100000,
              "widthSegments": 128,
              "heightSegments": 128,
              "phiStart": 0,
              "phiLength": 6.283185307179586,
              "thetaStart": 0,
              "thetaLength": 180,
              "height": 100000,
              "depth": 100000,
              "type": "SphereGeometry"
            },
            "type": "SphereGeometry"
          },
          "indices": 11
        }
      ]
    }
  ],
  "extensions": {
    "KHR_lights_punctual": {
      "lights": [
        {
          "name": "Directional Light",
          "color": [
            1,
            1,
            1
          ],
          "intensity": 1,
          "type": "directional"
        }
      ]
    }
  },
  "extensionsUsed": [
    "KHR_lights_punctual"
  ]
}